<?xml version="1.0" encoding="UTF-8"?>
<!DOCTYPE svg PUBLIC "-//W3C//DTD SVG 1.1//EN" "http://www.w3.org/Graphics/SVG/1.1/DTD/svg11.dtd">
<!-- Creator: CorelDRAW 2020 (64 Bit Versão de avaliação) -->
<svg xmlns="http://www.w3.org/2000/svg" xml:space="preserve" width="71.1197mm" height="82.4764mm" version="1.1" style="shape-rendering:geometricPrecision; text-rendering:geometricPrecision; image-rendering:optimizeQuality; fill-rule:evenodd; clip-rule:evenodd"
viewBox="0 0 3571.5 4141.82"
 xmlns:xlink="http://www.w3.org/1999/xlink"
 xmlns:xodm="http://www.corel.com/coreldraw/odm/2003">
 <defs>
  <style type="text/css">
   <![CDATA[
    .fil1 {fill:#FEFEFE;fill-rule:nonzero}
    .fil0 {fill:#B5C8FF;fill-rule:nonzero}
   ]]>
  </style>
 </defs>
 <g id="Camada_x0020_1">
  <metadata id="CorelCorpID_0Corel-Layer"/>
  <path class="fil0" d="M2080.79 4141.82c-385.86,0 -737.83,-91.29 -1055.92,-272.92 -318.1,-181.63 -568.43,-430.09 -751,-746.3 -182.58,-316.21 -273.86,-666.3 -273.86,-1050.28 0,-383.97 91.29,-734.06 273.86,-1050.27 182.57,-316.21 432.91,-565.61 751,-748.18 318.09,-182.58 670.07,-273.86 1055.92,-273.86 274.8,0 544.9,58.35 810.29,175.05 265.39,116.7 485.61,271.04 660.66,463.03l-149.64 158.11c-43.29,45.17 -93.17,79.99 -149.64,105.4 -56.47,25.41 -113.87,38.59 -172.22,38.59 -69.64,0 -130.81,-16 -183.51,-48 -118.58,-82.82 -247.51,-147.75 -387.74,-194.81 -140.22,-47.05 -283.27,-70.58 -428.2,-70.58 -267.28,0 -511.02,63.05 -731.24,189.16 -220.22,126.11 -393.38,299.28 -520.43,520.43 -127.05,221.16 -191.05,466.79 -191.05,735.95 0,269.16 63.99,513.85 191.05,734.06 127.05,220.22 300.21,393.38 520.43,519.49 220.22,126.11 463.97,189.16 731.24,189.16 146.81,0 290.8,-23.53 431.97,-70.58 141.17,-47.05 271.04,-113.87 389.62,-200.46 62.11,-37.64 128.93,-56.47 200.46,-56.47 58.35,0 114.81,12.24 169.4,36.7 54.58,24.47 103.52,58.35 146.81,101.64l152.46 158.11c-175.05,199.51 -396.21,358.56 -664.42,478.08 -268.22,119.52 -543.96,179.75 -826.29,179.75z"/>
  <path class="fil1" d="M2111.34 794.28c233.74,0 442.49,49.97 626.26,150.72 183.77,100.75 328.04,242.6 432.82,425.56 104.78,182.96 157.98,393.32 159.59,630.29 0,77.38 -22.57,141.85 -68.51,193.44 -45.94,51.58 -104.78,77.38 -175.7,77.38l-1707.1 0c27.4,112.84 76.57,211.98 147.5,297.41 70.93,85.44 158.78,151.53 263.56,198.28 104.78,46.75 219.23,70.12 343.35,70.12 120.9,0 244.22,-35.46 369.95,-106.39 49.97,-27.4 102.36,-41.1 157.17,-41.1 48.36,0 94.3,10.48 137.02,31.43 42.72,20.96 76.57,51.58 102.36,91.88l120.9 178.93c-114.45,112.84 -249.05,200.69 -403.8,263.56 -154.75,62.86 -315.95,94.3 -483.6,94.3 -246.63,0 -467.48,-54.81 -662.52,-164.42 -195.05,-109.62 -347.38,-261.14 -457.8,-454.58 -110.42,-193.44 -166.04,-412.67 -166.04,-657.69 0,-243.41 54.81,-462.65 163.62,-656.89 108.81,-194.24 258.72,-346.58 450.55,-457 191.82,-110.42 408.64,-165.23 650.44,-165.23zm689.12 1030.06c-40.3,-159.59 -122.51,-285.32 -247.44,-377.21 -124.93,-91.88 -272.42,-137.82 -441.68,-137.82 -125.74,0 -240.18,24.99 -344.16,75.76 -103.97,50.78 -191.02,121.7 -260.34,212.78 -69.32,91.08 -115.26,196.66 -137.82,315.95l7.26 0c45.13,-59.64 116.87,-89.46 215.2,-89.46l1208.99 0z"/>
 </g>
</svg>
