<?xml version="1.0" encoding="UTF-8"?>
<!DOCTYPE svg PUBLIC "-//W3C//DTD SVG 1.1//EN" "http://www.w3.org/Graphics/SVG/1.1/DTD/svg11.dtd">
<!-- Creator: CorelDRAW 2020 (64 Bit Versão de avaliação) -->
<svg xmlns="http://www.w3.org/2000/svg" xml:space="preserve" width="22.366mm" height="25.9375mm" version="1.1" style="shape-rendering:geometricPrecision; text-rendering:geometricPrecision; image-rendering:optimizeQuality; fill-rule:evenodd; clip-rule:evenodd"
viewBox="0 0 167.74 194.53"
 xmlns:xlink="http://www.w3.org/1999/xlink"
 xmlns:xodm="http://www.corel.com/coreldraw/odm/2003">
 <defs>
  <style type="text/css">
   <![CDATA[
    .fil0 {fill:#E6E7E8}
    .fil1 {fill:#00AFEF;fill-rule:nonzero}
   ]]>
  </style>
 </defs>
 <g id="Camada_x0020_1">
  <metadata id="CorelCorpID_0Corel-Layer"/>
  <path class="fil0" d="M97.67 157.15c-5.5,0 -10.81,-0.66 -15.92,-1.98 -5.1,-1.32 -9.95,-3.29 -14.54,-5.91 -4.6,-2.63 -8.72,-5.74 -12.35,-9.35 -3.63,-3.61 -6.77,-7.69 -9.4,-12.26 -2.64,-4.57 -4.62,-9.4 -5.95,-14.49 -1.33,-5.08 -1.99,-10.37 -1.99,-15.85 0,-5.49 0.66,-10.77 1.99,-15.85 1.33,-5.08 3.31,-9.91 5.95,-14.49 2.64,-4.56 5.77,-8.66 9.4,-12.28 3.64,-3.63 7.75,-6.75 12.33,-9.38 4.58,-2.63 9.43,-4.61 14.55,-5.93 5.11,-1.33 10.42,-1.99 15.93,-1.99 7.97,0 15.79,1.69 23.48,5.07 3.78,1.66 7.28,3.62 10.5,5.88 3.24,2.27 6.13,4.8 8.68,7.59l2.59 2.84 -6.68 7.06 -0.02 0.03c-0.77,0.81 -1.6,1.52 -2.48,2.14 -0.89,0.63 -1.83,1.16 -2.83,1.61 -0.99,0.45 -2.03,0.79 -3.12,1.04 -1.1,0.25 -2.18,0.37 -3.22,0.37 -1.26,0 -2.49,-0.16 -3.68,-0.47 -1.21,-0.31 -2.34,-0.8 -3.4,-1.44l-0.23 -0.15c-1.43,-1 -2.93,-1.89 -4.48,-2.67 -1.55,-0.78 -3.18,-1.45 -4.9,-2.03 -1.67,-0.56 -3.36,-0.98 -5.06,-1.26 -1.66,-0.27 -3.38,-0.41 -5.14,-0.41 -6.46,0 -12.33,1.51 -17.61,4.54 -2.63,1.51 -4.99,3.3 -7.06,5.38 -2.1,2.1 -3.91,4.46 -5.41,7.08 -0.96,1.66 -1.76,3.39 -2.42,5.18l39.99 0c3.45,0 6.58,1.41 8.85,3.67 2.27,2.27 3.67,5.4 3.67,8.84 0,3.45 -1.41,6.58 -3.67,8.85 -2.27,2.27 -5.4,3.67 -8.85,3.67l-40 0c0.66,1.8 1.48,3.53 2.44,5.2 1.52,2.63 3.31,4.98 5.39,7.06 2.06,2.06 4.42,3.85 7.08,5.37 2.66,1.52 5.44,2.66 8.34,3.41 2.9,0.75 5.99,1.13 9.27,1.13 3.54,0 6.98,-0.56 10.32,-1.67 3.39,-1.13 6.5,-2.73 9.34,-4.81l0.29 -0.2c1.18,-0.71 2.39,-1.25 3.63,-1.6 1.28,-0.36 2.59,-0.54 3.91,-0.54 1.07,0 2.14,0.11 3.19,0.34 1.01,0.22 2.03,0.56 3.05,1.02 0.97,0.44 1.89,0.95 2.76,1.55 0.9,0.63 1.72,1.3 2.45,2.03l0.05 0.07 6.75 7 -2.52 2.87c-2.56,2.92 -5.46,5.54 -8.7,7.87 -3.21,2.31 -6.75,4.33 -10.61,6.05 -3.9,1.74 -7.84,3.04 -11.8,3.9 -4,0.87 -8.05,1.31 -12.13,1.31z"/>
  <path class="fil1" d="M97.73 194.53c-18.12,0 -34.65,-4.29 -49.59,-12.82 -14.94,-8.53 -26.7,-20.2 -35.27,-35.05 -8.58,-14.85 -12.86,-31.3 -12.86,-49.33 0,-18.03 4.29,-34.48 12.86,-49.33 8.57,-14.85 20.33,-26.56 35.27,-35.14 14.94,-8.57 31.47,-12.86 49.59,-12.86 12.91,0 25.59,2.74 38.06,8.22 12.46,5.48 22.81,12.73 31.03,21.75l-7.03 7.43c-2.03,2.12 -4.38,3.76 -7.03,4.95 -2.65,1.19 -5.35,1.81 -8.09,1.81 -3.27,0 -6.14,-0.75 -8.62,-2.25 -5.57,-3.89 -11.62,-6.94 -18.21,-9.15 -6.59,-2.21 -13.3,-3.31 -20.11,-3.31 -12.55,0 -24,2.96 -34.34,8.88 -10.34,5.92 -18.48,14.06 -24.44,24.44 -5.97,10.39 -8.97,21.92 -8.97,34.57 0,12.64 3.01,24.13 8.97,34.48 5.97,10.34 14.1,18.48 24.44,24.4 10.34,5.92 21.79,8.88 34.34,8.88 6.9,0 13.66,-1.11 20.29,-3.32 6.63,-2.21 12.73,-5.35 18.3,-9.41 2.92,-1.77 6.06,-2.65 9.41,-2.65 2.74,0 5.39,0.57 7.96,1.72 2.56,1.15 4.86,2.74 6.89,4.77l7.16 7.43c-8.22,9.37 -18.61,16.84 -31.21,22.45 -12.6,5.61 -25.55,8.44 -38.81,8.44z"/>
 </g>
</svg>
